#!OML:ASF H:\Pregnant\Project 1\Capture day 1\Session 1\femalepreg.ASF
:FULLY-SPECIFIED
:DEGREES
331
root 6.57126 15.3872 22.7212 18.6057 -76.8559 -355.049
lowerback -16.7229 1.47309 -1.37134
upperback -6.33382 1.96976 -3.11625
thorax 2.68044 0.828559 -2.14329
lowerneck -24.01 -0.782806 0.187938
upperneck 26.8471 -1.09973 -0.883036
head 12.9812 -0.659345 -0.588551
rclavicle 1.29707e-014 3.73715e-014
rhumerus -25.5032 -38.7485 -0.40029
rradius 25.8895
rwrist 15.6855
rhand -9.5411 -11.6209
rfingers 7.12502
rthumb 16.4255 -40.9455
lclavicle 1.29707e-014 3.73715e-014
lhumerus -22.8691 38.5257 -4.16168
lradius 27.4966
lwrist 8.65884
lhand -20.6509 3.4864
lfingers 7.12502
lthumb 5.71144 33.3894
rfemur -40.8513 -5.13481 26.2645
rtibia 48.5771
rfoot -23.817 -25.2011
rtoes -1.9688
lfemur -28.9079 -2.95288 -25.2056
ltibia 21.6211
lfoot -10.7887 20.6504
ltoes -15.0187
332
root 6.5646 15.385 22.7271 18.1748 -78.4563 -354.673
lowerback -16.874 1.62934 -1.27578
upperback -6.36961 2.15623 -3.19879
thorax 2.73422 0.914428 -2.24748
lowerneck -23.9441 -0.532349 0.484106
upperneck 27.0207 -0.873598 -0.863171
head 13.0392 -0.529523 -0.59211
rclavicle 4.67144e-015 2.3059e-014
rhumerus -25.5861 -38.2313 -0.508876
rradius 26.0119
rwrist 15.2377
rhand -9.51168 -11.715
rfingers 7.12502
rthumb 16.4538 -41.0372
lclavicle 4.67144e-015 2.3059e-014
lhumerus -22.6939 38.7804 -4.17051
lradius 27.4573
lwrist 8.33285
lhand -20.6195 3.44995
lfingers 7.12502
lthumb 5.74175 33.3522
rfemur -40.6291 -5.53582 26.7157
rtibia 47.667
rfoot -24.0455 -25.4085
rtoes -0.775839
lfemur -28.6107 -2.71586 -25.346
ltibia 21.6396
lfoot -11.3205 21.7909
ltoes -13.0323
333
root 6.55615 15.3835 22.7305 17.6564 -80.0647 -354.211
lowerback -17.023 1.78375 -1.1849
upperback -6.40822 2.33998 -3.27526
thorax 2.78431 0.998872 -2.34261
lowerneck -23.8855 -0.273698 0.802089
upperneck 27.2121 -0.640335 -0.856962
head 13.1069 -0.39627 -0.603598
rclavicle -5.725e-014 2.38542e-015
rhumerus -25.6751 -37.8878 -0.581717
rradius 26.0956
rwrist 14.9554
rhand -9.41009 -11.7857
rfingers 7.12502
rthumb 16.5517 -41.0998
lclavicle -5.725e-014 2.38542e-015
lhumerus -22.5392 39.0191 -4.19598
lradius 27.4208
lwrist 8.05446
lhand -20.526 3.46386
lfingers 7.12502
lthumb 5.83204 33.3636
rfemur -40.3865 -5.69959 27.057
rtibia 46.7337
rfoot -24.1019 -25.5843
rtoes 0.450736
lfemur -28.3072 -2.49168 -25.4641
ltibia 21.6618
lfoot -12.1585 22.918
ltoes -10.0634
334
root 6.54665 15.383 22.7312 17.0119 -81.6738 -353.62
lowerback -17.1623 1.93727 -1.09291
upperback -6.45683 2.52065 -3.34978
thorax 2.8194 1.08145 -2.43665
lowerneck -23.7907 -0.00234491 1.11833
upperneck 27.3848 -0.394136 -0.83052
head 13.1612 -0.254647 -0.60421
rclavicle 1.48095e-014 1.43125e-014
rhumerus -25.7853 -37.694 -0.618869
rradius 26.1425
rwrist 14.8271
rhand -9.27098 -11.8292
rfingers 7.12502
rthumb 16.6856 -41.1321
lclavicle 1.48095e-014 1.43125e-014
lhumerus -22.3823 39.3378 -4.25436
lradius 27.352
lwrist 7.7249
lhand -20.3673 3.51299
lfingers 7.12502
lthumb 5.98519 33.4085
rfemur -40.1165 -5.58085 27.2678
rtibia 45.8373
rfoot -24.0944 -25.6586
rtoes 1.76365
lfemur -28.0032 -2.26965 -25.564
ltibia 21.6812
lfoot -13.1096 24.021
ltoes -6.93332
335
root 6.53623 15.3839 22.7288 16.176 -83.2875 -352.832
lowerback -17.2956 2.08623 -1.03977
upperback -6.5182 2.69867 -3.39076
thorax 2.83509 1.16308 -2.47352
lowerneck -23.6617 0.27311 1.4011
upperneck 27.5455 -0.129321 -0.800062
head 13.2049 -0.107994 -0.594074
rclavicle -1.44616e-014 7.15625e-015
rhumerus -25.9008 -37.5939 -0.599363
rradius 26.172
rwrist 14.8091
rhand -9.09089 -11.87
rfingers 7.12502
rthumb 16.8589 -41.1582
lclavicle -1.44616e-014 7.15625e-015
lhumerus -22.2686 39.4906 -4.26513
lradius 27.3226
lwrist 7.57135
lhand -20.1679 3.62882
lfingers 7.12502
lthumb 6.17777 33.5187
rfemur -39.8172 -5.15723 27.3352
rtibia 45.0235
rfoot -24.0124 -25.6153
rtoes 2.7759
lfemur -27.706 -2.00751 -25.6505
ltibia 21.7061
lfoot -14.0371 25.0645
ltoes -4.19139
336
root 6.52548 15.3857 22.724 14.887 -84.9003 -351.587
lowerback -17.4249 2.23497 -0.991321
upperback -6.58676 2.87572 -3.42676
thorax 2.84087 1.24396 -2.50241
lowerneck -23.5164 0.555039 1.69041
upperneck 27.7033 0.142478 -0.768074
head 13.2452 0.0425713 -0.583221
rclavicle 9.7653e-015 9.54166e-015
rhumerus -26.0256 -37.5003 -0.571274
rradius 26.1882
rwrist 14.8148
rhand -8.89034 -11.8975
rfingers 7.12502
rthumb 17.052 -41.1691
lclavicle 9.7653e-015 9.54166e-015
lhumerus -22.1769 39.4107 -4.23256
lradius 27.3464
lwrist 7.66986
lhand -19.9808 3.82181
lfingers 7.12502
lthumb 6.35838 33.7064
rfemur -39.4954 -4.36784 27.2196
rtibia 44.3241
rfoot -23.9002 -25.4868
rtoes 3.3946
lfemur -27.4244 -1.72501 -25.7314
ltibia 21.7517
lfoot -14.7901 26.0785
ltoes -2.31393
337
root 6.51473 15.3878 22.7174 12.5299 -86.5048 -349.271
lowerback -17.5538 2.38085 -0.932601
upperback -6.65427 3.04689 -3.46224
thorax 2.84817 1.32165 -2.53724
lowerneck -23.3705 0.845753 1.99793
upperneck 27.8618 0.421893 -0.74037
head 13.287 0.197835 -0.575852
rclavicle 2.29596e-014 0
rhumerus -26.159 -37.4269 -0.548451
rradius 26.1989
rwrist 14.8536
rhand -8.67336 -11.9064
rfingers 7.12502
rthumb 17.2608 -41.1599
lclavicle 2.29596e-014 0
lhumerus -22.1032 39.3081 -4.2135
lradius 27.3654
lwrist 7.81436
lhand -19.7865 4.0345
lfingers 7.12502
lthumb 6.54589 33.9133
rfemur -39.1755 -3.26494 26.9381
rtibia 43.751
rfoot -23.7479 -25.2818
rtoes 3.49352
lfemur -27.17 -1.42233 -25.8065
ltibia 21.8466
lfoot -15.6995 27.0054
ltoes -0.108051
338
root 6.50416 15.3888 22.7091 6.62265 -88.0919 -343.408
lowerback -17.6832 2.52904 -0.840995
upperback -6.71327 3.21648 -3.50986
thorax 2.86763 1.39814 -2.60324
lowerneck -23.2341 1.14212 2.33767
upperneck 28.0195 0.698061 -0.714334
head 13.3318 0.355078 -0.57521
rclavicle -3.35698e-014 3.49861e-014
rhumerus -26.3162 -37.3769 -0.543384
rradius 26.21
rwrist 14.9204
rhand -8.45192 -11.9123
rfingers 7.12502
rthumb 17.474 -41.147
lclavicle -3.35698e-014 3.49861e-014
lhumerus -22.0367 39.1854 -4.21301
lradius 27.3929
lwrist 8.01616
lhand -19.6023 4.25998
lfingers 7.12502
lthumb 6.72379 34.1332
rfemur -38.8894 -1.91623 26.5342
rtibia 43.3059
rfoot -23.5191 -25.0394
rtoes 3.00451
lfemur -26.9613 -1.04563 -25.8941
ltibia 22.0225
lfoot -16.4569 27.8892
ltoes 1.30913
339
root 6.49427 15.388 22.7 -37.6462 -89.5139 -299.185
lowerback -17.8154 2.68056 -0.69766
upperback -6.75542 3.38379 -3.57253
thorax 2.911 1.47319 -2.71396
lowerneck -23.1247 1.4412 2.71695
upperneck 28.1783 0.965159 -0.694962
head 13.3843 0.511998 -0.585432
rclavicle 5.63803e-014 -2.22639e-014
rhumerus -26.4941 -37.3466 -0.562664
rradius 26.2233
rwrist 15.003
rhand -8.24201 -11.8986
rfingers 7.12502
rthumb 17.676 -41.1152
lclavicle 5.63803e-014 -2.22639e-014
lhumerus -21.9649 39.1173 -4.24104
lradius 27.4073
lwrist 8.21584
lhand -19.4411 4.49049
lfingers 7.12502
lthumb 6.87934 34.3587
rfemur -38.6675 -0.428334 26.0673
rtibia 42.9757
rfoot -23.2197 -24.7605
rtoes 2.11888
lfemur -26.8223 -0.611172 -25.9865
ltibia 22.3138
lfoot -17.1682 28.743
ltoes 2.30539
340
root 6.48504 15.3847 22.6901 34.7099 -91.3653 -371.597
lowerback -17.9352 2.83742 -0.489669
upperback -6.7819 3.549 -3.64652
thorax 2.97014 1.54708 -2.87325
lowerneck -23.0379 1.73949 3.12265
upperneck 28.3344 1.21904 -0.669803
head 13.4418 0.667178 -0.600011
rclavicle 8.34896e-015 1.11319e-014
rhumerus -26.7066 -37.3579 -0.600186
rradius 26.2427
rwrist 15.128
rhand -8.05219 -11.8818
rfingers 7.12502
rthumb 17.8586 -41.0818
lclavicle 8.34896e-015 1.11319e-014
lhumerus -21.884 39.1811 -4.31413
lradius 27.3952
lwrist 8.33334
lhand -19.2931 4.71723
lfingers 7.12502
lthumb 7.02224 34.5807
rfemur -38.5125 1.082 25.6167
rtibia 42.7412
rfoot -22.8397 -24.4354
rtoes 1.02648
lfemur -26.7664 -0.0708689 -26.0875
ltibia 22.749
lfoot -17.6721 29.6208
ltoes 2.31816
